<?xml version="1.0" encoding="UTF-8" standalone="no"?>
<svg width="34px" height="34px" viewBox="0 0 34 34" version="1.1" xmlns="http://www.w3.org/2000/svg" xmlns:xlink="http://www.w3.org/1999/xlink" xmlns:sketch="http://www.bohemiancoding.com/sketch/ns">
    <!-- Generator: Sketch 3.5 (25232) - http://www.bohemiancoding.com/sketch -->
    <title>Sign in Icon</title>
    <desc>Created with Sketch.</desc>
    <defs></defs>
    <g id="BetaProd" stroke="none" stroke-width="1" fill="none" fill-rule="evenodd" sketch:type="MSPage">
        <g id="Post-A-Project" sketch:type="MSArtboardGroup" transform="translate(-1013.000000, -34.000000)">
            <g id="Sign-in-Icon" sketch:type="MSLayerGroup" transform="translate(1014.000000, 35.000000)">
                <path d="M4.92307692,27.3868166 L4.92307692,22.9001112 C4.92307692,21.1696863 6.34260064,19.7668998 8.08541097,19.7668998 L23.914589,19.7668998 C25.6610979,19.7668998 27.0769231,21.1698525 27.0769231,22.9001112 L27.0769231,27.5805469" id="Rectangle-23" stroke="#5D6765" sketch:type="MSShapeGroup"></path>
                <path d="M11.1958137,25.3498866 L15.7957091,19.7668996 L15.7957091,19.7668996 L20.3956044,25.3498865" id="Triangle-1" stroke="#5D6765" sketch:type="MSShapeGroup" transform="translate(15.795709, 22.558393) scale(1, -1) translate(-15.795709, -22.558393) "></path>
                <path d="M15.7953796,22.1859135 C19.776685,22.1859135 22.9233225,17.6826466 22.9233225,12.5351983 C22.9233225,7.38774991 19.776685,4.26844726 15.7953796,4.26844726 C11.8140741,4.26844726 9.06971179,7.38774991 9.06971179,12.5351983 C9.06971179,17.6826466 11.8140741,22.1859135 15.7953796,22.1859135 Z" id="Oval-6" stroke="#5D6765" fill="#FFFFFF" sketch:type="MSShapeGroup"></path>
                <rect id="Rectangle-21" fill="#5D6765" sketch:type="MSShapeGroup" x="11.2527473" y="12.4568765" width="2.81318681" height="1.74048174" rx="17"></rect>
                <rect id="Rectangle-21-Copy" fill="#5D6765" sketch:type="MSShapeGroup" x="17.2307692" y="12.4568765" width="2.81318681" height="1.74048174" rx="17"></rect>
                <path d="M9.14285714,11.2803073 C15.4119533,12.5993849 17.51318,7.34753455 17.51318,7.34753455 C17.51318,7.34753455 18.9329486,10.4243053 22.7742852,10.411962" id="Path-74" stroke="#5D6765" sketch:type="MSShapeGroup"></path>
                <circle id="Oval-7" stroke="#5D6765" sketch:type="MSShapeGroup" cx="16" cy="16" r="16"></circle>
            </g>
        </g>
    </g>
</svg>